<?xml version="1.0" encoding="utf-8"?>
<svg xmlns="http://www.w3.org/2000/svg" viewBox="0 0 24 24" width="192" height="192">
  <path d="M15,19.989H9c-3.314,0-6-2.686-6-6v0c0-4.971,4.029-9,9-9h0c4.971,0,9,4.029,9,9v0C21,17.303,18.314,19.989,15,19.989z" opacity=".35" fill="#5B5B5B" />
  <path d="M24,12.989v2c0,1.1-0.9,2-2,2h-1.81c0.52-0.88,0.81-1.9,0.81-3c0-1.05-0.18-2.06-0.52-3H22C23.1,10.989,24,11.889,24,12.989z" fill="#5B5B5B" />
  <path d="M3.81,16.989H2c-1.1,0-2-0.9-2-2v-2c0-1.1,0.9-2,2-2h1.52c-0.34,0.94-0.52,1.95-0.52,3C3,15.089,3.29,16.109,3.81,16.989z" fill="#5B5B5B" />
  <path d="M3.209,12.021l-1.919-0.564C2.804,6.313,7.007,2.989,12,2.989v2C7.917,4.989,4.466,7.75,3.209,12.021z" fill="#5B5B5B" />
  <path d="M20.791,12.021C19.534,7.75,16.083,4.989,12,4.989v-2c4.993,0,9.196,3.324,10.709,8.468L20.791,12.021z" fill="#5B5B5B" />
  <path d="M15,9.989H9c-2.209,0-4,1.791-4,4c0,2.209,1.791,4,4,4h6c2.209,0,4-1.791,4-4C19,11.78,17.209,9.989,15,9.989z M10,15.489c-0.552,0-1-0.447-1-1c0-0.275-0.224-0.5-0.5-0.5S8,14.214,8,14.489c0,0.553-0.448,1-1,1s-1-0.447-1-1c0-1.379,1.122-2.5,2.5-2.5s2.5,1.121,2.5,2.5C11,15.042,10.552,15.489,10,15.489z M17,15.489c-0.552,0-1-0.447-1-1c0-0.275-0.224-0.5-0.5-0.5s-0.5,0.225-0.5,0.5c0,0.553-0.448,1-1,1s-1-0.447-1-1c0-1.379,1.122-2.5,2.5-2.5s2.5,1.121,2.5,2.5C18,15.042,17.552,15.489,17,15.489z" fill="#5B5B5B" />
</svg>