<?xml version="1.0" encoding="utf-8"?>
<svg xmlns="http://www.w3.org/2000/svg" viewBox="0 0 64 64" width="512" height="512">
  <linearGradient id="9INq9Ry2Pv0fFabsc5wuma" x1="7.5" x2="7.5" y1="27.917" y2="36.015" gradientUnits="userSpaceOnUse" spreadMethod="reflect">
    <stop offset="0" stop-color="#6dc7ff" />
    <stop offset="1" stop-color="#e6abff" />
  </linearGradient>
  <path fill="url(#9INq9Ry2Pv0fFabsc5wuma)" d="M9,36H7c-0.552,0-1-0.448-1-1v-6c0-0.552,0.448-1,1-1h2V36z" />
  <linearGradient id="9INq9Ry2Pv0fFabsc5wumb" x1="44.138" x2="44.138" y1="9.167" y2="55.37" gradientUnits="userSpaceOnUse" spreadMethod="reflect">
    <stop offset="0" stop-color="#1a6dff" />
    <stop offset="1" stop-color="#c822ff" />
  </linearGradient>
  <path fill="url(#9INq9Ry2Pv0fFabsc5wumb)" d="M42.669,22.312l-1.334,1.49C43.664,25.887,45,28.875,45,32c0,3.153-1.357,6.161-3.725,8.25 l1.324,1.5C45.396,39.281,47,35.728,47,32C47,28.308,45.422,24.776,42.669,22.312z" />
  <linearGradient id="9INq9Ry2Pv0fFabsc5wumc" x1="35" x2="35" y1="25.625" y2="38.522" gradientUnits="userSpaceOnUse" spreadMethod="reflect">
    <stop offset="0" stop-color="#6dc7ff" />
    <stop offset="1" stop-color="#e6abff" />
  </linearGradient>
  <path fill="url(#9INq9Ry2Pv0fFabsc5wumc)" d="M33,28v8c2.209,0,4-1.791,4-4C37,29.791,35.209,28,33,28z" />
  <linearGradient id="9INq9Ry2Pv0fFabsc5wumd" x1="22.5" x2="22.5" y1="9.12" y2="54.66" gradientUnits="userSpaceOnUse" spreadMethod="reflect">
    <stop offset="0" stop-color="#1a6dff" />
    <stop offset="1" stop-color="#c822ff" />
  </linearGradient>
  <path fill="url(#9INq9Ry2Pv0fFabsc5wumd)" d="M33,24V10h-5c-5.728,0-10.442,4.402-10.949,10H17v1h-5c-1.654,0-3,1.346-3,3v2H7 c-1.654,0-3,1.346-3,3v6c0,1.654,1.346,3,3,3h2v2c0,1.654,1.346,3,3,3h5v1h0.051C17.559,49.598,22.273,54,28,54h5V40 c4.418,0,8-3.582,8-8S37.418,24,33,24z M9,36H7c-0.552,0-1-0.448-1-1v-6c0-0.552,0.448-1,1-1h2V36z M11,40V24c0-0.552,0.448-1,1-1h1 v9h2v-9h2v18h-5C11.448,41,11,40.552,11,40z M31,52h-3c-4.963,0-9-4.037-9-9V21c0-4.963,4.037-9,9-9h3V52z M33,38V26 c3.314,0,6,2.686,6,6S36.314,38,33,38z" />
</svg>