<?xml version="1.0" encoding="utf-8"?>
<svg xmlns="http://www.w3.org/2000/svg" viewBox="0 0 64 64" width="512" height="512">
  <linearGradient id="zJUlVCr2DqRifsCl_u0Gda" x1="32" x2="32" y1="10.25" y2="54.086" gradientUnits="userSpaceOnUse" spreadMethod="reflect">
    <stop offset="0" stop-color="#1a6dff" />
    <stop offset="1" stop-color="#c822ff" />
  </linearGradient>
  <path fill="url(#zJUlVCr2DqRifsCl_u0Gda)" d="M56.524,29.359L26.423,11.41c-0.9-0.537-1.983-0.549-2.894-0.031 C22.586,11.915,22,12.938,22,14.051v4.263L10.423,11.41c-0.901-0.537-1.983-0.549-2.894-0.031C6.586,11.915,6,12.938,6,14.051 v35.898c0,1.112,0.586,2.136,1.529,2.672c0.446,0.253,0.934,0.38,1.421,0.38c0.507,0,1.014-0.138,1.473-0.411L22,45.687v4.263 c0,1.112,0.586,2.136,1.529,2.672c0.446,0.253,0.934,0.38,1.421,0.38c0.507,0,1.014-0.138,1.473-0.411l30.103-17.95 C57.448,34.089,58,33.103,58,32S57.448,29.911,56.524,29.359z M9.399,50.871c-0.38,0.229-0.716,0.105-0.882,0.011 C8.193,50.697,8,50.349,8,49.949V14.051c0-0.399,0.193-0.748,0.518-0.933c0.096-0.055,0.249-0.119,0.435-0.119 c0.135,0,0.287,0.034,0.447,0.13L39.5,31.077C39.813,31.264,40,31.609,40,32s-0.187,0.736-0.499,0.922L9.399,50.871z M55.501,32.922 L25.399,50.871c-0.38,0.229-0.716,0.105-0.882,0.011C24.193,50.697,24,50.349,24,49.949v-5.456l16.525-9.854 C41.448,34.089,42,33.103,42,32s-0.552-2.089-1.476-2.641L24,19.506v-5.455c0-0.399,0.193-0.748,0.518-0.933 c0.166-0.094,0.502-0.216,0.882,0.011L55.5,31.077C55.813,31.264,56,31.609,56,32S55.813,32.736,55.501,32.922z" />
  <linearGradient id="zJUlVCr2DqRifsCl_u0Gdb" x1="22.051" x2="22.051" y1="19.75" y2="44.511" gradientUnits="userSpaceOnUse" spreadMethod="reflect">
    <stop offset="0" stop-color="#6dc7ff" />
    <stop offset="1" stop-color="#e6abff" />
  </linearGradient>
  <path fill="url(#zJUlVCr2DqRifsCl_u0Gdb)" d="M12,20.793v22.415c0,0.782,0.859,1.261,1.524,0.849l18.104-11.207 c0.631-0.39,0.631-1.308,0-1.698L13.524,19.944C12.859,19.532,12,20.01,12,20.793z" />
</svg>