<?xml version="1.0" encoding="utf-8"?>
<svg xmlns="http://www.w3.org/2000/svg" viewBox="0 0 64 64" width="512" height="512">
  <linearGradient id="~3XdwmFrozQE5rbroQ6I4a" x1="32" x2="32" y1="5.5" y2="59.32" gradientUnits="userSpaceOnUse" spreadMethod="reflect">
    <stop offset="0" stop-color="#1a6dff" />
    <stop offset="1" stop-color="#c822ff" />
  </linearGradient>
  <path fill="url(#~3XdwmFrozQE5rbroQ6I4a)" d="M13.991,58.002c-0.484,0-0.97-0.122-1.418-0.369C11.603,57.101,11,56.072,11,54.949V9.051 c0-1.123,0.603-2.151,1.573-2.684c0.956-0.527,2.079-0.487,3,0.099l36.021,22.95C52.475,29.977,53,30.942,53,32 s-0.525,2.023-1.405,2.584l-36.021,22.95C15.084,57.846,14.539,58.002,13.991,58.002z M13.996,8c-0.209,0-0.376,0.073-0.461,0.12 C13.2,8.304,13,8.652,13,9.051v45.898c0,0.398,0.2,0.747,0.535,0.931c0.147,0.081,0.537,0.239,0.964-0.033l36.021-22.95 C50.953,32.621,51,32.178,51,32s-0.047-0.621-0.479-0.896L14.499,8.153C14.319,8.039,14.146,8,13.996,8z" />
  <linearGradient id="~3XdwmFrozQE5rbroQ6I4b" x1="29.197" x2="29.197" y1="17.5" y2="47.267" gradientUnits="userSpaceOnUse" spreadMethod="reflect">
    <stop offset="0" stop-color="#6dc7ff" />
    <stop offset="1" stop-color="#e6abff" />
  </linearGradient>
  <path fill="url(#~3XdwmFrozQE5rbroQ6I4b)" d="M18,20.272v23.457c0,1.604,1.716,2.585,3.041,1.741l18.411-11.728 c1.256-0.8,1.257-2.681,0.001-3.481L21.04,18.531C19.715,17.687,18,18.668,18,20.272z" />
</svg>